<svg xmlns="http://www.w3.org/2000/svg" aria-hidden="true">
  <symbol id="icon-download" viewBox="0 0 24 24"><path d="M12 3v11m0 0 4-4m-4 4-4-4M5 17v2a2 2 0 0 0 2 2h10a2 2 0 0 0 2-2v-2"/></symbol>
  <symbol id="icon-github" viewBox="0 0 24 24"><path d="M15 22v-4a4.8 4.8 0 0 0-1-3.5c3.2-.4 6.5-1.6 6.5-7A5.4 5.4 0 0 0 19 3.8 5 5 0 0 0 18.9.2S17.7-.2 15 1.7a13.4 13.4 0 0 0-7 0C5.3-.2 4.1.2 4.1.2A5 5 0 0 0 4 3.8a5.4 5.4 0 0 0-1.5 3.7c0 5.4 3.3 6.6 6.5 7a4.8 4.8 0 0 0-1 3.5v4"/><path d="M9 18c-4.5 2-5-2-7-2"/></symbol>
  <symbol id="icon-linkedin" viewBox="0 0 24 24"><path d="M16 8a6 6 0 0 1 6 6v7h-4v-7a2 2 0 0 0-4 0v7h-4v-7a6 6 0 0 1 6-6Z"/><path d="M2 9h4v12H2z"/><circle cx="4" cy="4" r="2"/></symbol>
  <symbol id="icon-facebook" viewBox="0 0 24 24"><path d="M18 2h-3a5 5 0 0 0-5 5v3H7v4h3v8h4v-8h3l1-4h-4V7a1 1 0 0 1 1-1h3z"/></symbol>
  <symbol id="icon-mail" viewBox="0 0 24 24"><path d="M4 4h16a2 2 0 0 1 2 2v12a2 2 0 0 1-2 2H4a2 2 0 0 1-2-2V6a2 2 0 0 1 2-2Z"/><path d="m22 6-10 7L2 6"/></symbol>
  <symbol id="icon-send" viewBox="0 0 24 24"><path d="m22 2-7 20-4-9-9-4Z"/><path d="M22 2 11 13"/></symbol>
  <symbol id="icon-home" viewBox="0 0 24 24"><path d="m3 11 9-8 9 8"/><path d="M5 10v10h14V10"/><path d="M9 20v-6h6v6"/></symbol>
  <symbol id="icon-user" viewBox="0 0 24 24"><circle cx="12" cy="7" r="4"/><path d="M5.5 21a6.5 6.5 0 0 1 13 0"/></symbol>
  <symbol id="icon-award" viewBox="0 0 24 24"><circle cx="12" cy="8" r="5"/><path d="m8.5 12.2-1 8.8 4.5-2.7 4.5 2.7-1-8.8"/></symbol>
  <symbol id="icon-file" viewBox="0 0 24 24"><path d="M14 2H6a2 2 0 0 0-2 2v16a2 2 0 0 0 2 2h12a2 2 0 0 0 2-2V8Z"/><path d="M14 2v6h6"/><path d="M8 13h8M8 17h6"/></symbol>
  <symbol id="icon-code" viewBox="0 0 24 24"><path d="m16 18 6-6-6-6M8 6l-6 6 6 6"/></symbol>
  <symbol id="icon-spark" viewBox="0 0 24 24"><path d="M12 2 9.5 9.5 2 12l7.5 2.5L12 22l2.5-7.5L22 12l-7.5-2.5Z"/></symbol>
  <symbol id="icon-target" viewBox="0 0 24 24"><circle cx="12" cy="12" r="10"/><circle cx="12" cy="12" r="6"/><circle cx="12" cy="12" r="2"/></symbol>
  <symbol id="icon-terminal" viewBox="0 0 24 24"><path d="m4 17 6-5-6-5M12 19h8"/></symbol>
  <symbol id="icon-browser" viewBox="0 0 24 24"><rect x="3" y="4" width="18" height="16" rx="2"/><path d="M3 8h18"/></symbol>
  <symbol id="icon-layers" viewBox="0 0 24 24"><path d="m12 2 10 5-10 5L2 7Z"/><path d="m2 17 10 5 10-5"/><path d="m2 12 10 5 10-5"/></symbol>
  <symbol id="icon-database" viewBox="0 0 24 24"><ellipse cx="12" cy="5" rx="9" ry="3"/><path d="M3 5v14c0 1.7 4 3 9 3s9-1.3 9-3V5"/><path d="M3 12c0 1.7 4 3 9 3s9-1.3 9-3"/></symbol>
  <symbol id="icon-external" viewBox="0 0 24 24"><path d="M15 3h6v6"/><path d="M10 14 21 3"/><path d="M18 13v6a2 2 0 0 1-2 2H5a2 2 0 0 1-2-2V8a2 2 0 0 1 2-2h6"/></symbol>
</svg>
